<svg xmlns="http://www.w3.org/2000/svg" width="128" height="128" viewBox="0 0 128 128">
  <g transform="matrix(1,0,0,1,-0.306737,4.299009)">
    <g transform="matrix(0.799005,0,-0.175442,0.82539,15.273266,3.492201)">
      <path d="M116,29.316L116,98.684C116,103.825 111.688,108 106.376,108L21.624,108C16.312,108 12,103.825 12,98.684L12,29.316C12,24.175 16.312,20 21.624,20L106.376,20C111.688,20 116,24.175 116,29.316Z" fill="#0E2551"/>
    </g>
    <g transform="matrix(0.767675,0,-0.163174,0.767675,25.6279,44.398334)">
      <path d="M4.593,-14.076C2.914,-12.108 3.508,-8.813 5.921,-6.715C13.846,0.174 29.778,14.027 29.778,14.027C29.778,14.027 11.594,29.57 3.148,36.79C2.084,37.7 1.579,39.108 1.765,40.654C1.95,42.2 2.807,43.732 4.115,44.858C4.217,44.945 4.317,45.032 4.417,45.118C6.337,46.769 8.935,47.01 10.502,45.681C18.088,39.251 38.904,21.608 39.93,20.739C39.956,20.717 39.982,20.694 40.008,20.671C40.123,20.569 40.492,20.243 40.992,19.8C42.247,18.688 42.832,16.991 42.598,15.137C42.364,13.283 41.333,11.449 39.766,10.098C31.98,3.386 18.788,-7.988 11.977,-13.861C9.566,-15.94 6.266,-16.036 4.594,-14.077Z" fill="#FFFFFF"/>
    </g>
    <g transform="matrix(-0.014653,0.068931,0.290378,0.000006,35.808072,72.127202)">
      <path d="M116,32.902L116,95.098C116,102.219 92.7,108 64,108C35.3,108 12,102.219 12,95.098L12,32.902C12,25.781 35.3,20 64,20C92.7,20 116,25.781 116,32.902Z" fill="#FFFFFF"/>
    </g>
    <g transform="matrix(1,0,0,1,3.544731,-2.05274)">
      <g transform="matrix(1.398297,0,-0.329625,1.550763,78.502219,51.192968)">
        <path d="M0,4.517C0,3.486 0.584,2.628 1.563,2.218C2.542,1.807 3.794,1.897 4.915,2.458C11.405,5.703 22.832,11.416 29.877,14.938C31.118,15.559 32.017,16.665 32.227,17.83C32.436,18.995 31.924,20.038 30.887,20.556C24.303,23.849 12.882,29.559 5.926,33.037C4.827,33.587 3.326,33.454 2.064,32.696C0.802,31.938 0,30.688 0,29.478C0,22.259 0,10.811 0,4.517Z" fill="#79EC5D"/>
      </g>
      <g transform="matrix(0.864906,0,0,0.864906,10.726237,10.622713)">
        <g transform="matrix(0.070472,0,-0.067643,0.318238,90.389888,58.264665)">
          <path d="M116,31.515L116,96.485C116,102.84 92.7,108 64,108C35.3,108 12,102.84 12,96.485L12,31.515C12,25.16 35.3,20 64,20C92.7,20 116,25.16 116,31.515Z" fill="#FFFFFF"/>
        </g>
        <g transform="matrix(-0.014653,0.068931,0.325347,0.000007,70.686498,74.219795)">
          <path d="M116,31.515L116,96.485C116,102.84 92.7,108 64,108C35.3,108 12,102.84 12,96.485L12,31.515C12,25.16 35.3,20 64,20C92.7,20 116,25.16 116,31.515Z" fill="#FFFFFF"/>
        </g>
      </g>
    </g>
  </g>
</svg>